<!-- Generated by IcoMoon.io -->
<svg version="1.1" xmlns="http://www.w3.org/2000/svg" width="32" height="32" viewBox="0 0 32 32">
<title>-file</title>
<path d="M27.002 32h-20.122c-1.988 0-3.599-1.611-3.599-3.599v-24.802c0-1.988 1.611-3.599 3.599-3.599h20.122c1.988 0 3.599 1.611 3.599 3.599v24.801c0 1.988-1.611 3.599-3.599 3.599zM9.107 32h-2.226c-1.988 0-3.599-1.612-3.599-3.599v-24.802c0-1.988 1.612-3.599 3.599-3.599h2.226c-1.988 0-3.599 1.612-3.599 3.599v24.802c0 1.988 1.612 3.599 3.599 3.599zM5.938 6.622h-3.255c-0.71 0-1.285-0.575-1.285-1.285s0.575-1.285 1.285-1.285h3.255c0.71 0 1.285 0.575 1.285 1.285s-0.575 1.285-1.285 1.285zM7.164 5.721c-0.065 0.206-0.175 0.382-0.317 0.525l-0 0c-0.232 0.232-0.552 0.376-0.907 0.376-0.001 0-0.001 0-0.002 0h-3.255c-0.71 0-1.284-0.575-1.284-1.284 0-0.001 0-0.001 0-0.002 0-0.354 0.144-0.675 0.376-0.906l0-0c0.232-0.233 0.552-0.377 0.906-0.377 0.001 0 0.002 0 0.002 0h0.079c-0.037 0.115-0.059 0.246-0.059 0.383 0 0 0 0.001 0 0.001v-0c0 0.709 0.575 1.285 1.284 1.285h3.175zM5.938 27.948h-3.255c-0.71 0-1.285-0.575-1.285-1.285s0.575-1.285 1.285-1.285h3.255c0.71 0 1.285 0.575 1.285 1.285s-0.575 1.285-1.285 1.285zM7.164 27.047c-0.065 0.206-0.175 0.382-0.317 0.525l-0 0c-0.232 0.232-0.552 0.376-0.907 0.376-0.001 0-0.001 0-0.002 0h-3.255c-0.71 0-1.284-0.575-1.284-1.285 0-0.001 0-0.001 0-0.002 0-0.354 0.144-0.675 0.376-0.906l0-0c0.232-0.233 0.552-0.377 0.906-0.377 0.001 0 0.002 0 0.002 0h0.079c-0.037 0.115-0.059 0.246-0.059 0.383 0 0 0 0.001 0 0.001v-0c0 0.709 0.575 1.285 1.284 1.285h3.175zM5.938 22.616h-3.255c-0.71 0-1.285-0.575-1.285-1.285s0.575-1.285 1.285-1.285h3.255c0.71 0 1.285 0.575 1.285 1.285s-0.575 1.285-1.285 1.285zM7.164 21.715c-0.065 0.206-0.175 0.382-0.317 0.525l-0 0c-0.232 0.232-0.552 0.376-0.907 0.376-0.001 0-0.001 0-0.002 0h-3.255c-0.71 0-1.284-0.575-1.284-1.285 0-0.001 0-0.001 0-0.002 0-0.354 0.144-0.675 0.376-0.906l0-0c0.232-0.233 0.552-0.377 0.906-0.377 0.001 0 0.002 0 0.002 0h0.079c-0.037 0.115-0.059 0.246-0.059 0.383 0 0 0 0.001 0 0.001v-0c0 0.709 0.575 1.285 1.284 1.285h3.175zM5.938 17.285h-3.255c-0.71 0-1.285-0.575-1.285-1.285s0.575-1.285 1.285-1.285h3.255c0.71 0 1.285 0.575 1.285 1.285s-0.575 1.285-1.285 1.285zM7.164 16.384c-0.065 0.206-0.175 0.382-0.317 0.525l-0 0c-0.232 0.232-0.552 0.376-0.907 0.376-0.001 0-0.001 0-0.002 0h-3.255c-0.71 0-1.284-0.575-1.284-1.285 0-0.001 0-0.001 0-0.002 0-0.354 0.144-0.675 0.376-0.906l0-0c0.232-0.233 0.552-0.377 0.906-0.377 0.001 0 0.002 0 0.002 0h0.079c-0.037 0.115-0.059 0.246-0.059 0.383 0 0 0 0.001 0 0.001v-0c0 0.709 0.575 1.284 1.284 1.284h3.175zM5.938 11.953h-3.255c-0.71 0-1.285-0.575-1.285-1.285s0.575-1.285 1.285-1.285h3.255c0.71 0 1.285 0.575 1.285 1.285s-0.575 1.285-1.285 1.285zM7.164 11.053c-0.065 0.206-0.175 0.382-0.317 0.525l-0 0c-0.232 0.232-0.552 0.376-0.907 0.376-0.001 0-0.001 0-0.002 0h-3.255c-0.71 0-1.284-0.575-1.284-1.284 0-0.001 0-0.001 0-0.002 0-0.354 0.144-0.675 0.376-0.906l0-0c0.232-0.233 0.552-0.377 0.906-0.377 0.001 0 0.002 0 0.002 0h0.079c-0.037 0.115-0.059 0.246-0.059 0.383 0 0 0 0.001 0 0.001v-0c0 0.709 0.575 1.284 1.284 1.284h3.175zM26.923 5.52h-17.215c-0.267 0-0.483-0.216-0.483-0.483s0.216-0.483 0.483-0.483h17.215c0.263 0.004 0.475 0.219 0.475 0.483s-0.212 0.479-0.475 0.483h-0zM26.923 11.002h-17.215c-0.267 0-0.483-0.216-0.483-0.483s0.216-0.483 0.483-0.483h17.215c0.267 0 0.483 0.216 0.483 0.483s-0.216 0.483-0.483 0.483v0zM26.923 16.483h-17.215c-0.267 0-0.483-0.216-0.483-0.483s0.216-0.483 0.483-0.483h17.215c0.267 0 0.483 0.216 0.483 0.483s-0.216 0.483-0.483 0.483v0zM26.923 21.964h-17.215c-0.267 0-0.483-0.216-0.483-0.483s0.216-0.483 0.483-0.483h17.215c0.267 0 0.483 0.216 0.483 0.483s-0.216 0.483-0.483 0.483v0zM26.923 27.445h-17.215c-0.267 0-0.483-0.216-0.483-0.483s0.216-0.483 0.483-0.483v0h17.215c0.267 0 0.483 0.216 0.483 0.483s-0.216 0.483-0.483 0.483v0z"></path>
</svg>
