<!-- Generated by IcoMoon.io -->
<svg version="1.1" xmlns="http://www.w3.org/2000/svg" width="43" height="32" viewBox="0 0 43 32">
<title>cloud</title>
<path d="M21.284 29.359c5.397-1.695 9.312-6.737 9.312-12.694v-3.674l-0.008-0.201c-0.038-0.95-0.174-1.86-0.4-2.719 0.322-0.037 0.694-0.057 1.072-0.057 0 0 0.001 0 0.001 0h-0c5.51 0 9.977 4.467 9.977 9.977s-4.467 9.977-9.977 9.977h-9.977v-0.609zM31.832 13.010l0.010 0.247v3.334c0 5.57-2.978 10.444-7.429 13.116h6.168c5.361 0 9.707-4.346 9.707-9.707 0-5.057-3.866-9.21-8.804-9.666 0.195 0.864 0.312 1.759 0.348 2.676zM30.581 8.012c6.621 0 11.988 5.367 11.988 11.988s-5.367 11.988-11.988 11.988h-15.413v-2.371l1.386-0.019c7.184 0 13.007-5.823 13.007-13.007v-3.289l-0.008-0.202c-0.074-1.877-0.543-3.599-1.338-5.088h2.365zM29.554 13.1c-0.244-6.192-4.783-10.699-11.155-10.699-5.468 0-9.478 3.313-10.838 8.552l-0.223 0.859-0.733 0.5c-2.661 1.815-4.238 4.636-4.238 7.677 0 5.261 4.715 9.608 10.622 9.608h3.567c7.184 0 13.007-5.823 13.007-13.007v-3.289l-0.008-0.202zM31.927 13.007v3.584c0 8.49-6.882 15.372-15.372 15.372h-3.567c-7.173 0-12.987-5.36-12.987-11.973 0-3.948 2.073-7.45 5.271-9.631 1.537-5.921 6.234-10.323 13.128-10.323 7.888 0 13.234 5.763 13.518 12.97h0.010z"></path>
</svg>
