<!-- Generated by IcoMoon.io -->
<svg version="1.1" xmlns="http://www.w3.org/2000/svg" width="32" height="32" viewBox="0 0 32 32">
<title>fenxiang</title>
<path d="M26.881 21.044c-2.087 0-3.794 1.119-4.587 2.853l-10.088-4.294c0.588-0.913 0.912-2.028 0.912-3.234 0-0.5-0.059-1-0.175-1.469l6.441-5c0.853 0.647 1.941 1.028 3.147 1.028 2.913 0 5.088-2.175 5.088-5.056s-2.181-5.059-5.091-5.059-5.059 2.175-5.059 5.056c0 0.734 0.147 1.413 0.381 2l-5.938 4.559c-1.175-1.766-3.116-3-5.322-3-3.616 0-6.528 2.909-6.528 6.528s2.913 6.528 6.528 6.528c1.353 0 2.616-0.353 3.647-1l11.584 4.941c0.147 2.734 2.266 4.762 5.059 4.762 2.913 0 5.056-2.175 5.056-5.056s-2.175-5.087-5.056-5.087zM22.528 2.928c1.441 0 2.913 1.087 2.913 2.913s-1.087 2.913-2.913 2.913-2.913-1.441-2.913-2.912 1.472-2.913 2.913-2.913zM6.591 20.309c-2.175 0-4-1.822-4-4s1.822-4 4-4 4 1.822 4 4c-0.031 2.175-1.825 3.997-4 4zM26.881 29.012c-1.822 0-2.913-1.087-2.913-2.913s1.441-2.913 2.913-2.913c1.469 0 2.913 1.087 2.913 2.913-0.031 1.825-1.119 2.913-2.913 2.913z"></path>
</svg>
