<!-- Generated by IcoMoon.io -->
<svg version="1.1" xmlns="http://www.w3.org/2000/svg" width="32" height="32" viewBox="0 0 32 32">
<title>lianxi2hebing_shipin</title>
<path d="M25.875 7.031h-6.272l2.889-2.889c0.085-0.086 0.138-0.204 0.138-0.335s-0.053-0.249-0.138-0.335l-0.167-0.167c-0.086-0.085-0.204-0.138-0.335-0.138s-0.249 0.053-0.335 0.138l-3.727 3.727h-3.854l-3.727-3.727c-0.086-0.085-0.204-0.138-0.335-0.138s-0.249 0.053-0.335 0.138l-0.167 0.167c-0.085 0.086-0.138 0.204-0.138 0.335s0.053 0.249 0.138 0.335l2.889 2.889h-6.272c-2.162 0-3.93 1.768-3.93 3.93v13.232c0 2.162 1.768 3.93 3.93 3.93h0.197v0.237c0.001 0.262 0.213 0.473 0.474 0.474h0.948c0.262-0.001 0.473-0.213 0.474-0.474v-0.237h15.563v0.237c0.001 0.262 0.213 0.473 0.474 0.474h0.948c0.262-0.001 0.473-0.213 0.474-0.474v-0.237h0.198c2.162 0 3.93-1.768 3.93-3.93v-13.232c-0-2.162-1.769-3.93-3.93-3.93zM21.112 18.783l-8.853 5.111c-0.914 0.528-2.057-0.132-2.057-1.188v-10.222c0-1.056 1.143-1.715 2.057-1.188l8.853 5.111c0.914 0.529 0.914 1.847 0 2.375z"></path>
</svg>
