<!-- Generated by IcoMoon.io -->
<svg version="1.1" xmlns="http://www.w3.org/2000/svg" width="32" height="32" viewBox="0 0 32 32">
<title>paixu1</title>
<path d="M28.8 6.32h-25.6c-0.656 0-1.2-0.544-1.2-1.2s0.544-1.2 1.2-1.2h25.6c0.656 0 1.2 0.544 1.2 1.2s-0.544 1.2-1.2 1.2zM28.8 17.2h-25.6c-0.656 0-1.2-0.544-1.2-1.2s0.544-1.2 1.2-1.2h25.6c0.656 0 1.2 0.544 1.2 1.2s-0.544 1.2-1.2 1.2zM28.8 28.080h-25.6c-0.656 0-1.2-0.544-1.2-1.2s0.544-1.2 1.2-1.2h25.6c0.656 0 1.2 0.544 1.2 1.2s-0.544 1.2-1.2 1.2z"></path>
</svg>
