<!-- Generated by IcoMoon.io -->
<svg version="1.1" xmlns="http://www.w3.org/2000/svg" width="32" height="32" viewBox="0 0 32 32">
<title>paixu</title>
<path d="M21.75 28.701l-0.75 0.433c-0.478 0.276-1.090 0.112-1.366-0.366-0.084-0.143-0.134-0.316-0.134-0.5v0-26.018c0-0.138 0.112-0.25 0.25-0.25v0h1.75c0.138 0 0.25 0.112 0.25 0.25v0 23.853l5.75-3.32c0.072-0.042 0.158-0.067 0.25-0.067s0.178 0.025 0.252 0.068l-0.002-0.001 1.625 0.938c0.075 0.044 0.125 0.124 0.125 0.216s-0.050 0.172-0.124 0.216l-0.001 0.001-7.875 4.547zM10.25 3.299l0.75-0.433c0.478-0.276 1.090-0.112 1.366 0.366 0.084 0.143 0.134 0.316 0.134 0.5 0 0 0 0 0 0v0 26.018c0 0.138-0.112 0.25-0.25 0.25v0h-1.75c-0.138 0-0.25-0.112-0.25-0.25v0-23.853l-5.75 3.32c-0.072 0.042-0.158 0.067-0.25 0.067s-0.178-0.025-0.252-0.068l0.002 0.001-1.625-0.938c-0.075-0.044-0.125-0.124-0.125-0.216s0.050-0.172 0.124-0.216l0.001-0.001 7.875-4.547z"></path>
</svg>
