<!-- Generated by IcoMoon.io -->
<svg version="1.1" xmlns="http://www.w3.org/2000/svg" width="32" height="32" viewBox="0 0 32 32">
<title>pdf</title>
<path d="M30.222 8.8v19.644c0 1.956-1.6 3.556-3.556 3.556h-21.333c-1.956 0-3.556-1.6-3.556-3.556v-24.889c0-1.956 1.6-3.556 3.556-3.556h16.089l8.8 8.8zM21.422 7.022v-7.022l8.8 8.8h-7.022c-0.978 0-1.778-0.8-1.778-1.778M21.259 20.709c-0.372-0.037-0.742-0.114-1.114-0.304 0.333-0.067 0.628-0.067 0.962-0.067 0.742 0 0.885 0.18 0.885 0.295-0.219 0.076-0.476 0.105-0.733 0.076zM17.479 20.224c-0.809 0.181-1.705 0.448-2.514 0.743v-0.076l-0.076 0.038c0.409-0.819 0.781-1.667 1.114-2.524l0.029 0.038 0.037-0.067c0.41 0.628 0.933 1.257 1.485 1.809h-0.114l0.038 0.038zM15.556 13.045c0.038-0.038 0.115-0.038 0.142-0.038h0.116c0.088 0.27 0.138 0.581 0.138 0.904 0 0.366-0.065 0.716-0.184 1.041l0.007-0.021c-0.257-0.591-0.371-1.257-0.219-1.885zM11.004 24.071l-0.115 0.038c0.331-0.475 0.784-0.845 1.313-1.068l0.020-0.007c-0.295 0.484-0.705 0.856-1.219 1.037zM21.145 19.224c-0.781 0-1.552 0.115-2.333 0.258-0.912-0.837-1.677-1.815-2.265-2.903l-0.029-0.058c0.628-2.076 0.667-3.476 0.18-4.142-0.223-0.292-0.57-0.479-0.96-0.484h-0.001c-0.476-0.038-0.924 0.19-1.143 0.59-0.667 1.114 0.295 3.294 0.743 4.189-0.524 1.59-1.152 3.104-1.972 4.589-3.513 1.514-3.589 2.437-3.589 2.771 0 0.409 0.228 0.819 0.628 1 0.152 0.114 0.372 0.151 0.562 0.151 0.924 0 2-1.037 3.142-3.075 1.447-0.59 2.894-1.067 4.409-1.4 0.743 0.623 1.689 1.028 2.726 1.104l0.016 0.001c0.628 0 1.847 0 1.847-1.257 0.038-0.485-0.219-1.295-1.961-1.333z"></path>
</svg>
