<!-- Generated by IcoMoon.io -->
<svg version="1.1" xmlns="http://www.w3.org/2000/svg" width="32" height="32" viewBox="0 0 32 32">
<title>PDF</title>
<path d="M18.592 0l10.473 10.666v17.6c0 2.062-1.641 3.734-3.665 3.734h-18.851c-2.025 0-3.666-1.673-3.666-3.734v-24.532c0-2.062 1.641-3.734 3.666-3.734h12.044zM15.092 11.734c-0.693 0.010-1.251 0.574-1.251 1.268 0 0.002 0 0.004 0 0.006v-0c0 0.868 0.474 1.948 0.974 2.962-0.393 1.245-0.835 2.577-1.401 3.703-1.159 0.462-2.194 0.807-2.814 1.318-0.239 0.236-0.387 0.564-0.387 0.927 0 0.003 0 0.006 0 0.009v-0c0 0.698 0.564 1.274 1.251 1.274 0.005 0 0.011 0 0.017 0 0.354 0 0.673-0.15 0.897-0.389l0.001-0.001c0.457-0.557 0.996-1.567 1.478-2.489 1.107-0.444 2.269-0.896 3.389-1.166 0.818 0.67 2.002 1.114 2.975 1.114 0.687 0 1.251-0.575 1.251-1.274 0-0.001 0-0.003 0-0.004 0-0.694-0.558-1.258-1.25-1.268h-0.001c-0.781 0-1.916 0.284-2.782 0.582-0.715-0.686-1.32-1.479-1.791-2.355l-0.025-0.050c0.333-1.042 0.72-2.083 0.72-2.89 0-0.002 0-0.004 0-0.006 0-0.694-0.558-1.258-1.25-1.268h-0.001zM15.092 12.497c0.281 0 0.5 0.224 0.5 0.509 0 0.382-0.201 1.088-0.433 1.844-0.311-0.736-0.567-1.443-0.567-1.843 0-0.286 0.22-0.509 0.5-0.509v-0.001zM15.308 16.858c0.394 0.633 0.822 1.183 1.301 1.684l-0.004-0.004c-0.742 0.206-1.466 0.471-2.182 0.748 0.346-0.793 0.622-1.617 0.884-2.429v0.001zM20.221 18.487c0.281 0 0.5 0.223 0.5 0.509 0 0.285-0.22 0.509-0.5 0.509-0.564 0-1.364-0.259-2.006-0.621 0.736-0.212 1.538-0.398 2.006-0.398v0.001zM12.755 20.768c-0.352 0.64-0.701 1.236-0.946 1.536-0.085 0.081-0.2 0.131-0.326 0.131-0.006 0-0.013-0-0.019-0l0.001 0c-0 0-0.001 0-0.002 0-0.276 0-0.499-0.223-0.499-0.499 0-0.004 0-0.007 0-0.011v0.001c0.001-0.13 0.048-0.256 0.132-0.355 0.294-0.231 0.932-0.509 1.658-0.803zM29.065 10.666h-6.622c-2.023 0-3.85-1.859-3.85-3.922v-6.745l10.473 10.666z"></path>
</svg>
