<!-- Generated by IcoMoon.io -->
<svg version="1.1" xmlns="http://www.w3.org/2000/svg" width="32" height="32" viewBox="0 0 32 32">
<title>post_video</title>
<path d="M21.511 29.714h-17.67c-2.12-0.002-3.839-1.743-3.841-3.891v-19.646c0.002-2.147 1.721-3.888 3.841-3.891h17.67c2.079-0.011 3.783 1.669 3.828 3.774v0.050c0.001 0.023 0.001 0.047 0 0.070v4.593l4.076-2.139c0.248-0.15 0.548-0.24 0.869-0.24 0.316 0 0.612 0.086 0.865 0.237l-0.008-0.004c0.517 0.309 0.858 0.865 0.858 1.502 0 0.006-0 0.011-0 0.017v-0.001 11.8c-0.002 0.965-0.773 1.746-1.725 1.747-0.004 0-0.010 0-0.015 0-0.31 0-0.601-0.084-0.85-0.231l0.008 0.004-4.077-2.139v4.497c0.001 0.017 0.002 0.038 0.002 0.058s-0.001 0.041-0.002 0.061l0-0.003v0.089c-0.102 2.067-1.787 3.69-3.83 3.687zM6.854 6.857c-1.892 0.002-3.426 1.536-3.426 3.429 0 1.894 1.535 3.429 3.429 3.429 0.001 0 0.002 0 0.003 0h-0c1.892-0.002 3.426-1.536 3.426-3.429 0-1.894-1.535-3.429-3.429-3.429-0.001 0-0.002 0-0.003 0h0z"></path>
</svg>
