<!-- Generated by IcoMoon.io -->
<svg version="1.1" xmlns="http://www.w3.org/2000/svg" width="32" height="32" viewBox="0 0 32 32">
<title>shangchuan</title>
<path d="M15.999 0c8.836 0 16 7.164 16 16s-7.164 16-16 16-16-7.164-16-16 7.164-16 16-16zM16.82 8.619c-0.224-0.176-0.51-0.283-0.821-0.283s-0.597 0.107-0.824 0.285l0.003-0.002-6.667 5.211-0.125 0.111c-0.239 0.241-0.387 0.573-0.387 0.939 0 0.311 0.106 0.597 0.285 0.824l-0.002-0.003 0.111 0.127c0.241 0.239 0.573 0.387 0.939 0.387 0.311 0 0.597-0.106 0.824-0.285l-0.003 0.002 4.515-3.528v10.264c0 0.736 0.597 1.333 1.333 1.333s1.333-0.597 1.333-1.333v-10.264l4.512 3.528 0.139 0.095c0.195 0.119 0.432 0.189 0.685 0.189 0.736 0 1.333-0.597 1.333-1.333 0-0.426-0.2-0.806-0.511-1.050l-0.003-0.002z"></path>
</svg>
