<!-- Generated by IcoMoon.io -->
<svg version="1.1" xmlns="http://www.w3.org/2000/svg" width="32" height="32" viewBox="0 0 32 32">
<title>shipin1</title>
<path d="M28.571 1.143c1.943 0 3.429 1.486 3.429 3.429v22.857c0 1.943-1.486 3.429-3.429 3.429h-25.143c-1.943 0-3.429-1.486-3.429-3.429v-22.857c0-1.943 1.486-3.429 3.429-3.429h25.143zM28.571 3.429h-25.143c-0.686 0-1.143 0.457-1.143 1.143v22.857c0 0.686 0.457 1.143 1.143 1.143h25.143c0.686 0 1.143-0.457 1.143-1.143v-22.857c0-0.686-0.457-1.143-1.143-1.143zM23.543 18.286l-0.114 0.229c-0.229 0.457-0.686 0.8-1.143 1.029l-6.857 4c-1.6 0.914-3.771 0.457-4.686-1.257-0.343-0.457-0.457-1.143-0.457-1.714v-8c0-1.943 1.486-3.429 3.429-3.429 0.571 0 1.257 0.114 1.714 0.457l6.857 4c1.6 0.914 2.171 2.857 1.371 4.457l-0.114 0.229zM21.6 17.029c0.229-0.571 0-1.143-0.457-1.486l-6.857-4c-0.229-0.114-0.343-0.114-0.571-0.114-0.686 0-1.143 0.457-1.143 1.143v8c0 0.229 0 0.343 0.114 0.571 0.343 0.571 1.029 0.686 1.6 0.457l6.857-4 0.457-0.457v-0.114z"></path>
</svg>
