<!-- Generated by IcoMoon.io -->
<svg version="1.1" xmlns="http://www.w3.org/2000/svg" width="32" height="32" viewBox="0 0 32 32">
<title>shipin</title>
<path d="M29.333 1.333h-26.667c-1.133 0-2 0.867-2 2v25.333c0 1.133 0.867 2 2 2h26.667c1.133 0 2-0.867 2-2v-25.333c0-1.133-0.867-2-2-2zM23.533 2.667l3.867 4h-5.133l-3.867-4h5.133zM16.867 2.667l3.867 4h-5.133l-3.867-4h5.133zM10.2 2.667l3.867 4h-5.133l-3.867-4h5.133zM2 3.333c0-0.4 0.267-0.667 0.667-0.667h0.867l3.867 4h-5.4v-3.333zM30 28.667c0 0.4-0.267 0.667-0.667 0.667h-26.667c-0.4 0-0.667-0.267-0.667-0.667v-20.667h28v20.667zM30 6.667h-1.067l-3.867-4h4.267c0.4 0 0.667 0.267 0.667 0.667v3.333zM13.333 25c0.333 0 0.733-0.067 1.067-0.267l7.6-4.4c1.333-0.733 1.333-2.6 0-3.333l-7.6-4.4c-0.333-0.2-0.667-0.267-1.067-0.267-1.067 0-2 0.533-2 1.667v9.333c0 1.133 0.933 1.667 2 1.667zM12.667 14.267c0-0.4 0.333-0.667 0.667-0.667 0.133 0 0.267 0 0.333 0.067l7.6 4.4c0.267 0.2 0.333 0.467 0.333 0.533 0 0.133 0 0.4-0.333 0.533l-7.6 4.4c-0.133 0.067-0.2 0.067-0.333 0.067-0.333 0-0.667-0.267-0.667-0.667v-8.667z"></path>
</svg>
