<!-- Generated by IcoMoon.io -->
<svg version="1.1" xmlns="http://www.w3.org/2000/svg" width="32" height="32" viewBox="0 0 32 32">
<title>shizhong</title>
<path d="M6.295 25.548c-0.316 0.316-0.316 0.789 0 1.105 2.762 2.604 6.312 4.103 10.1 4.103 8.048 0 14.597-6.549 14.597-14.597s-6.549-14.597-14.597-14.597-14.597 6.549-14.597 14.597c0 2.762 0.789 5.523 2.288 7.891 0.237 0.395 0.71 0.473 1.105 0.237s0.473-0.71 0.237-1.105c-1.341-2.052-2.052-4.498-2.052-7.023 0-7.18 5.839-13.019 13.019-13.019s13.019 5.839 13.019 13.019-5.839 13.019-13.019 13.019c-3.393 0-6.549-1.262-8.995-3.63-0.316-0.316-0.868-0.316-1.105 0zM16.237 5.979c-0.473 0-0.789 0.316-0.789 0.789v9.626c0 0.473 0.316 0.789 0.789 0.789h8.916c0.473 0 0.789-0.316 0.789-0.789s-0.316-0.789-0.789-0.789h-8.127v-8.837c0-0.473-0.316-0.789-0.789-0.789z"></path>
</svg>
