<!-- Generated by IcoMoon.io -->
<svg version="1.1" xmlns="http://www.w3.org/2000/svg" width="45" height="32" viewBox="0 0 45 32">
<title>shoucang</title>
<path d="M30.8 31.968c-0.464 0-0.992-0.128-1.472-0.384l-6.944-3.472-6.992 3.472c-0.448 0.24-0.944 0.368-1.472 0.368-0.672 0-1.328-0.208-1.856-0.608-0.976-0.736-1.472-2-1.248-3.168l1.424-7.408-5.488-5.104c-0.848-0.864-1.168-2.096-0.848-3.264l0.016-0.032c0.4-1.2 1.392-2.032 2.592-2.192l7.616-1.392 3.408-6.944c0.544-1.104 1.664-1.808 2.848-1.808 1.232 0 2.384 0.736 2.864 1.824l3.408 6.928 7.616 1.328c1.2 0.176 2.208 1.040 2.544 2.224 0.384 1.152 0.064 2.416-0.8 3.28l-0.016 0.016-5.456 5.152 1.376 7.424c0.224 1.184-0.256 2.384-1.232 3.136-0.56 0.4-1.216 0.624-1.888 0.624z"></path>
</svg>
