<!-- Generated by IcoMoon.io -->
<svg version="1.1" xmlns="http://www.w3.org/2000/svg" width="32" height="32" viewBox="0 0 32 32">
<title>tupian1</title>
<path d="M24.313 5.744h-16.594c-1.588 0-2.875 1.287-2.875 2.875v13.594c-0.037 0.15-0.037 0.294 0 0.438v0.738c0 1.587 1.287 2.875 2.875 2.875h16.594c1.587 0 2.875-1.288 2.875-2.875v-14.769c0-1.588-1.288-2.875-2.875-2.875zM7.719 7.494h16.594c0.619 0 1.125 0.506 1.125 1.125v10.919c-0.65-0.881-1.438-1.844-2.256-2.606-0.488-0.456-1.094-0.644-1.756-0.55-1.044 0.15-2.188 1.019-3.494 2.65-0.313 0.387-0.594 0.775-0.825 1.106-1.15-1.587-3.412-4.519-5.331-5.869-0.569-0.4-1.206-0.494-1.856-0.281-0.706 0.231-1.394 0.831-2.094 1.831-0.406 0.575-0.819 1.287-1.237 2.125v-9.325c0.006-0.625 0.506-1.125 1.131-1.125zM19.75 11.713c0 1.087 0.881 1.969 1.969 1.969s1.969-0.881 1.969-1.969v0c0-1.087-0.881-1.969-1.969-1.969s-1.969 0.881-1.969 1.969v0z"></path>
</svg>
