<!-- Generated by IcoMoon.io -->
<svg version="1.1" xmlns="http://www.w3.org/2000/svg" width="32" height="32" viewBox="0 0 32 32">
<title>weibiaoti-_huabanfuben</title>
<path d="M26.527 6.225h-13.534c0-0.83-0.673-1.504-1.504-1.504h-6.015c-0.83 0-1.504 0.673-1.504 1.504v4.512c0 0.831 0.673 1.504 1.504 1.504h21.054c0.83 0 1.504-0.673 1.504-1.504v-3.008c-0-0.831-0.674-1.504-1.504-1.504zM25.023 7.728h-18.046c-0.83 0-1.504 0.673-1.504 1.504v1.504c0 0.831 0.673 1.504 1.504 1.504h18.046c0.83 0 1.504-0.673 1.504-1.504v-1.504c0-0.83-0.673-1.504-1.504-1.504zM26.527 9.232h-21.054c-0.83 0-1.504 0.673-1.504 1.504v15.039c0 0.83 0.673 1.504 1.504 1.504h21.054c0.83 0 1.504-0.674 1.504-1.504v-15.040c-0-0.83-0.674-1.504-1.504-1.504z"></path>
</svg>
