<!-- Generated by IcoMoon.io -->
<svg version="1.1" xmlns="http://www.w3.org/2000/svg" width="32" height="32" viewBox="0 0 32 32">
<title>wenjianjia1</title>
<path d="M25.413 28.174h-18.59c-2.134 0-3.866-1.731-3.866-3.866v-4.037h26.32v4.035c0 2.136-1.73 3.867-3.864 3.867zM26.787 8.942v-0.118c0-2.37-1.926-4.296-4.296-4.296h-7.715c-0.019 0-0.037 0.002-0.056 0.003-0.798-0.848-1.918-1.344-3.123-1.344h-5.304c-2.37 0-4.296 1.926-4.296 4.296v17.355c0 2.37 1.926 4.296 4.296 4.296h19.648c2.37 0 4.296-1.926 4.296-4.296v-11.685c0-2.078-1.485-3.818-3.45-4.211zM24.867 8.824v0.034h-6.274c-0.891 0-1.699-0.491-2.11-1.283l-0.584-1.126h6.592c1.31 0 2.376 1.066 2.376 2.376zM28.317 24.837c0 1.31-1.066 2.376-2.376 2.376h-19.648c-1.31 0-2.376-1.066-2.376-2.376v-17.354c0-1.31 1.066-2.376 2.376-2.376h5.304c0.891 0 1.699 0.491 2.11 1.283l1.072 2.069c0.727 1.389 2.158 2.32 3.806 2.32 0.003 0 0.006 0 0.009 0h7.347c1.31 0 2.376 1.066 2.376 2.376v11.682z"></path>
</svg>
