<!-- Generated by IcoMoon.io -->
<svg version="1.1" xmlns="http://www.w3.org/2000/svg" width="32" height="32" viewBox="0 0 32 32">
<title>wenjian</title>
<path d="M26.35 2h-20.864c-3.164 0-3.44 3.652-3.44 3.652s0 18.964 0 21.118c0 2.154 3.44 3.23 3.44 3.23h15.478l8.988-8.85c0 0 0-13.062 0-15.778 0.002-2.716-3.602-3.372-3.602-3.372zM27.774 20.27c0 1.104-1.166 1.162-1.166 1.162s-2.668 0-3.968 0c-1.298 0-1.286 0.984-1.286 0.984s0 2.54 0 3.934c0 1.39-0.704 1.45-0.704 1.45s-13.064 0-14.656 0-1.764-1.358-1.764-1.358 0-18.494 0-20.274 1.764-2.106 1.764-2.106 18.122 0.090 19.788 0.090c1.664 0 1.992 1.992 1.992 1.992s0 13.018 0 14.126zM23.586 11.678c0 0.602-0.484 1.086-1.084 1.086h-13.118c-0.6 0-1.086-0.484-1.086-1.086v0c0-0.6 0.486-1.084 1.086-1.084h13.118c0.6 0 1.084 0.484 1.084 1.084v0zM21.27 17.198c0 0.58-0.472 1.052-1.054 1.052h-10.864c-0.58 0-1.052-0.472-1.052-1.052v0c0-0.586 0.472-1.056 1.052-1.056h10.864c0.58-0.002 1.054 0.47 1.054 1.056v0z"></path>
</svg>
