<!-- Generated by IcoMoon.io -->
<svg version="1.1" xmlns="http://www.w3.org/2000/svg" width="32" height="32" viewBox="0 0 32 32">
<title>wenjian1</title>
<path d="M11.2 10.317h-3.945v-1.103h3.945c0.607 0 1.103-0.497 1.103-1.103v-3.945h1.103v3.945c0 1.219-0.988 2.207-2.207 2.207zM6.864 9.373l5.598-5.598 0.78 0.78-5.598 5.598zM22.152 26.786h-13.241c-1.219 0-2.207-0.988-2.207-2.207v-15.040l5.926-5.926h9.523c1.219 0 2.207 0.988 2.207 2.207v18.759c0 1.219-0.988 2.207-2.207 2.207zM7.807 9.992v14.588c0 0.607 0.497 1.103 1.103 1.103h13.241c0.607 0 1.103-0.497 1.103-1.103v-18.759c0-0.607-0.497-1.103-1.103-1.103h-9.070l-5.274 5.274zM21.021 14.897h-11.034c-0.303 0-0.552-0.248-0.552-0.552s0.248-0.552 0.552-0.552h11.034c0.303 0 0.552 0.248 0.552 0.552s-0.248 0.552-0.552 0.552zM21.021 10.483h-5.517c-0.303 0-0.552-0.248-0.552-0.552s0.248-0.552 0.552-0.552h5.517c0.303 0 0.552 0.248 0.552 0.552s-0.248 0.552-0.552 0.552zM21.021 19.31h-11.034c-0.303 0-0.552-0.248-0.552-0.552s0.248-0.552 0.552-0.552h11.034c0.303 0 0.552 0.248 0.552 0.552s-0.248 0.552-0.552 0.552z"></path>
</svg>
