<!-- Generated by IcoMoon.io -->
<svg version="1.1" xmlns="http://www.w3.org/2000/svg" width="32" height="32" viewBox="0 0 32 32">
<title>yasuobao</title>
<path d="M3.059 11.75h25.887v8.413h-25.887zM28.947 11.75v-6.703c0-0.831-0.744-1.572-1.628-1.572h-22.634c-0.884 0-1.628 0.741-1.628 1.572v6.703h25.891zM3.059 20.163v6.703c0 0.831 0.737 1.572 1.616 1.572h22.656c0.878 0 1.616-0.741 1.616-1.572v-6.703h-25.887zM13.181 3.475h5.778v24.962h-5.778zM18.959 14.294v3.512h-6.053v-3.512h6.053M19.931 12.859h-7.997c-0.137 0-0.369 0.137-0.369 0.369v5.594c0 0.137 0.137 0.369 0.369 0.369h7.997c0.137 0 0.369-0.137 0.369-0.369v-5.594c-0.091-0.275-0.231-0.369-0.369-0.369zM19.931 12.859"></path>
</svg>
