<!-- Generated by IcoMoon.io -->
<svg version="1.1" xmlns="http://www.w3.org/2000/svg" width="32" height="32" viewBox="0 0 32 32">
<title>yinle1</title>
<path d="M12.238 24.942c-0.53 0-0.96-0.43-0.96-0.96v-16.763c0-0.95 0.672-1.749 1.597-1.896l13.662-2.032c0.531-0.085 1.082 0.070 1.501 0.429 0.429 0.366 0.675 0.901 0.675 1.47v15.976c0 0.53-0.43 0.96-0.96 0.96s-0.96-0.43-0.96-0.96v-15.973l-13.594 2.021-0.002 16.768c0 0.531-0.43 0.96-0.96 0.96zM26.83 5.189c-0.002 0 0 0 0 0zM8.054 28.92c-2.837 0-5.144-2.307-5.144-5.144s2.307-5.144 5.144-5.144c2.837 0 5.144 2.307 5.144 5.144 0 2.835-2.307 5.144-5.144 5.144zM8.054 20.552c-1.778 0-3.224 1.446-3.224 3.224s1.446 3.224 3.224 3.224 3.224-1.446 3.224-3.224-1.446-3.224-3.224-3.224zM23.686 26.342c-2.771 0-5.027-2.254-5.027-5.027s2.254-5.027 5.027-5.027 5.027 2.254 5.027 5.027-2.254 5.027-5.027 5.027zM23.686 18.21c-1.714 0-3.107 1.394-3.107 3.107s1.394 3.107 3.107 3.107 3.107-1.394 3.107-3.107-1.394-3.107-3.107-3.107z"></path>
</svg>
