<!-- Generated by IcoMoon.io -->
<svg version="1.1" xmlns="http://www.w3.org/2000/svg" width="32" height="32" viewBox="0 0 32 32">
<title>yinle</title>
<path d="M25.467 28.583h-18.767c-1.717 0-3.117-1.4-3.117-3.117v-18.767c0-1.717 1.4-3.117 3.117-3.117h18.767c1.717 0 3.117 1.4 3.117 3.117v18.767c0 1.717-1.4 3.117-3.117 3.117zM10.933 23.167h-0.017c-1.050 0-1.9-0.85-1.9-1.9v-2.517c0-1.050 0.85-1.9 1.9-1.9h0.017c1.050 0 1.9 0.85 1.9 1.9v2.517c0 1.050-0.85 1.9-1.9 1.9zM21.433 23h-0.017c-1.050 0-1.9-0.85-1.9-1.9v-2.517c0-1.050 0.85-1.9 1.9-1.9h0.017c1.050 0 1.9 0.85 1.9 1.9v2.517c0 1.050-0.85 1.9-1.9 1.9zM10.85 16.833c0.267-2.717 2.533-4.833 5.317-4.833s5.050 2.117 5.317 4.833h1.833c-0.25-3.717-3.35-6.667-7.15-6.667s-6.883 2.95-7.15 6.667h1.833zM22 16.833h1.333v3h-1.333zM9 16.833h1.667v3h-1.667z"></path>
</svg>
