<!-- Generated by IcoMoon.io -->
<svg version="1.1" xmlns="http://www.w3.org/2000/svg" width="32" height="32" viewBox="0 0 32 32">
<title>yunpan1</title>
<path d="M16.54 2.667c0 0 0.001 0 0.001 0 5.891 0 10.667 4.776 10.667 10.667 0 0.506-0.035 1.004-0.103 1.491l0.006-0.056c2.805 0.54 4.896 2.975 4.896 5.899 0 2.841-1.974 5.22-4.625 5.843l-0.041 0.008-0.001 0.149-20.956-0.007c-3.558-0.156-6.384-3.078-6.384-6.661 0-3.402 2.549-6.209 5.841-6.616l0.032-0.003v-0.047c0-5.891 4.776-10.667 10.667-10.667v0zM21.007 16c-0.552 0-1 0.448-1 1v0c-0 2.393-1.94 4.333-4.333 4.333s-4.333-1.94-4.333-4.333v0c0-0.552-0.448-1-1-1s-1 0.448-1 1v0c0 0 0 0 0 0 0 3.498 2.836 6.333 6.333 6.333s6.333-2.836 6.333-6.333c0-0 0-0 0-0v0c0-0.552-0.448-1-1-1v0z"></path>
</svg>
