<!-- Generated by IcoMoon.io -->
<svg version="1.1" xmlns="http://www.w3.org/2000/svg" width="32" height="32" viewBox="0 0 32 32">
<title>yunpan2</title>
<path d="M24.958 13.573c-0.344-0.053-0.592-0.346-0.568-0.675 0.014-0.184 0.021-0.371 0.021-0.558 0-4.331-3.701-7.843-8.266-7.843s-8.266 3.512-8.266 7.843c0 0.187 0.006 0.374 0.021 0.558 0.024 0.33-0.224 0.622-0.568 0.675-3.472 0.528-6.125 3.382-6.125 6.826 0 3.819 3.262 6.915 7.288 6.915h15.301c4.026 0 7.288-3.096 7.288-6.915 0-3.443-2.654-6.298-6.126-6.826zM15.826 22.614c-2.075 0-4.149-0.789-5.73-2.37-0.626-0.626-0.626-1.638 0-2.262s1.638-0.624 2.262 0c1.912 1.91 5.021 1.912 6.933 0 0.626-0.624 1.638-0.624 2.262 0 0.626 0.626 0.626 1.638 0 2.262-1.578 1.579-3.653 2.37-5.728 2.37z"></path>
</svg>
