<?xml version="1.0" standalone="no"?><!DOCTYPE svg PUBLIC "-//W3C//DTD SVG 1.1//EN" "http://www.w3.org/Graphics/SVG/1.1/DTD/svg11.dtd"><svg t="1625102784704" class="icon" viewBox="0 0 1362 1024" version="1.1" xmlns="http://www.w3.org/2000/svg" p-id="3154" xmlns:xlink="http://www.w3.org/1999/xlink" width="266.015625" height="200"><defs><style type="text/css"></style></defs><path d="M681.100917 939.483988c172.706838-54.243817 297.982434-215.591144 297.982435-406.199193v-117.551755l-0.255217-6.44619c-1.20093-30.40685-5.556844-59.510997-12.803132-87.011816a321.446752 321.446752 0 0 1 34.341578-1.835058c176.32685 0 319.267229 142.940379 319.267229 319.265663 0 176.32685-142.940379 319.267229-319.267229 319.26723H681.100917v-19.488881z" fill="#E2E7ED" p-id="3155"></path><path d="M1018.635743 416.326459l0.31315 7.916428v106.676061c0 178.229235-95.310287 334.196648-237.743364 419.71474H978.593272c171.559144 0 310.633688-139.07611 310.633688-310.633688 0-161.815486-123.72707-294.731939-281.737786-309.307498 6.242642 27.648 9.987914 56.283988 11.148135 85.633957zM978.593272 256.391437c211.861529 0 383.608563 171.747034 383.608563 383.608563s-171.747034 383.608563-383.608563 383.608563H485.382263v-75.865248l44.362373-0.594985c229.87704 0 416.229382-186.352343 416.229382-416.229382v-105.235572l-0.256783-6.477504c-2.37211-60.065272-17.371988-115.176514-42.807584-162.814435H978.593272z" fill="#333333" p-id="3156"></path><path d="M945.717235 419.205872c-7.824049-198.134606-153.055119-342.354202-356.968905-342.354202-174.988135 0-303.310679 106.009052-346.829113 273.672611l-7.139816 27.499254-23.470581 16.009786c-85.156404 58.076771-135.631462 148.339083-135.631462 245.673884 0 168.357187 150.870899 307.441125 339.908501 307.441125h114.158777c229.87704 0 416.229382-186.352343 416.229382-416.229382v-105.235572l-0.256783-6.477504z m75.934141-2.985884v114.69896c0 271.67315-220.23359 491.90674-491.90674 491.90674h-114.158777C186.06581 1022.825688 0 851.297859 0 639.705639c0-126.346569 66.343927-238.407242 168.667205-308.194251C217.848954 142.032245 368.13896 1.174312 588.74833 1.174312c252.414434 0 423.478801 184.401419 432.588331 415.045676h0.314715z" fill="#333333" p-id="3157"></path></svg>