<?xml version="1.0" standalone="no"?><!DOCTYPE svg PUBLIC "-//W3C//DTD SVG 1.1//EN" "http://www.w3.org/Graphics/SVG/1.1/DTD/svg11.dtd"><svg t="1625102880785" class="icon" viewBox="0 0 1024 1024" version="1.1" xmlns="http://www.w3.org/2000/svg" p-id="3686" xmlns:xlink="http://www.w3.org/1999/xlink" width="200" height="200"><defs><style type="text/css"></style></defs><path d="M511.957333 0c282.752 0 512 229.248 512 512s-229.248 512-512 512-512-229.248-512-512 229.248-512 512-512z m26.282667 275.797333a42.666667 42.666667 0 0 0-52.565333 0l-213.333334 166.741334-4.010666 3.541333a42.666667 42.666667 0 0 0-3.328 56.32l3.541333 4.053333a42.666667 42.666667 0 0 0 56.32 3.328L469.333333 396.885333V725.333333a42.666667 42.666667 0 1 0 85.333334 0V396.885333l144.384 112.896 4.437333 3.029334a42.666667 42.666667 0 0 0 48.128-70.272z" fill="#008df0" p-id="3687"></path></svg>