<?xml version="1.0" standalone="no"?><!DOCTYPE svg PUBLIC "-//W3C//DTD SVG 1.1//EN" "http://www.w3.org/Graphics/SVG/1.1/DTD/svg11.dtd"><svg t="1625236536351" class="icon" viewBox="0 0 1024 1024" version="1.1" xmlns="http://www.w3.org/2000/svg" p-id="2420" xmlns:xlink="http://www.w3.org/1999/xlink" width="200" height="200"><defs><style type="text/css"></style></defs><path d="M924.444444 1024h-796.444444C73.016889 1024 28.444444 978.147556 28.444444 921.6v-117.020444c0-24.234667 19.114667-43.889778 42.666667-43.889778s42.666667 19.626667 42.666667 43.889778V921.6c0 8.078222 6.371556 14.620444 14.222222 14.620444h796.444444c7.850667 0 14.222222-6.542222 14.222223-14.620444v-117.020444c0-24.234667 19.114667-43.889778 42.666666-43.889778s42.666667 19.626667 42.666667 43.889778V921.6c0 56.547556-44.572444 102.4-99.555556 102.4z m-398.222222-948.821333c11.406222 0 22.357333 4.721778 30.378667 13.084444 8.021333 8.334222 12.430222 19.655111 12.288 31.402667v585.130666c0 24.234667-19.114667 43.889778-42.666667 43.889778s-42.666667-19.626667-42.666666-43.889778V119.665778c-0.142222-11.747556 4.266667-23.04 12.288-31.402667a42.097778 42.097778 0 0 1 30.378666-13.084444zM526.222222 0a42.382222 42.382222 0 0 1 30.151111 12.885333l284.444445 292.551111c8.049778 8.192 12.600889 19.342222 12.600889 31.004445 0 11.662222-4.551111 22.840889-12.600889 31.004444a42.097778 42.097778 0 0 1-60.302222 0l-284.444445-292.551111a44.231111 44.231111 0 0 1-12.600889-31.004444c0-11.662222 4.551111-22.812444 12.600889-31.004445A42.382222 42.382222 0 0 1 526.222222 0z m0 0a42.382222 42.382222 0 0 1 30.151111 12.885333c8.049778 8.192 12.600889 19.342222 12.600889 31.004445 0 11.662222-4.551111 22.812444-12.600889 31.004444l-284.444444 292.579556a42.097778 42.097778 0 0 1-60.302222 0 44.231111 44.231111 0 0 1-12.600889-31.004445c0-11.662222 4.551111-22.840889 12.600889-31.004444l284.444444-292.579556A42.382222 42.382222 0 0 1 526.222222 0z" fill="#000000" p-id="2421"></path></svg>