<?xml version="1.0" standalone="no"?><!DOCTYPE svg PUBLIC "-//W3C//DTD SVG 1.1//EN" "http://www.w3.org/Graphics/SVG/1.1/DTD/svg11.dtd"><svg t="1625102884975" class="icon" viewBox="0 0 1024 1024" version="1.1" xmlns="http://www.w3.org/2000/svg" p-id="3817" xmlns:xlink="http://www.w3.org/1999/xlink" width="200" height="200"><defs><style type="text/css"></style></defs><path d="M529.28896 85.333333a341.333333 341.333333 0 0 1 338.261333 387.242667 192.042667 192.042667 0 0 1 7.381334 375.978667L874.88896 853.333333H213.555627l-9.258667-0.213333a213.333333 213.333333 0 0 1-16.341333-424.96V426.666667a341.333333 341.333333 0 0 1 341.333333-341.333334z m142.933333 426.666667a32 32 0 0 0-32 32 138.666667 138.666667 0 0 1-277.333333 0 32 32 0 1 0-64 0 202.666667 202.666667 0 1 0 405.333333 0 32 32 0 0 0-32-32z" p-id="3818"></path></svg>