<?xml version="1.0" standalone="no"?><!DOCTYPE svg PUBLIC "-//W3C//DTD SVG 1.1//EN" "http://www.w3.org/Graphics/SVG/1.1/DTD/svg11.dtd"><svg t="1625102912174" class="icon" viewBox="0 0 1024 1024" version="1.1" xmlns="http://www.w3.org/2000/svg" p-id="4737" xmlns:xlink="http://www.w3.org/1999/xlink" width="200" height="200"><defs><style type="text/css"></style></defs><path d="M798.6688 434.3296c-11.008-1.6896-18.944-11.0592-18.176-21.6064 0.4608-5.888 0.6656-11.8784 0.6656-17.8688 0-138.5984-118.4256-250.9824-264.4992-250.9824-146.0736 0-264.4992 112.384-264.4992 250.9824 0 5.9904 0.2048 11.9808 0.6656 17.8688 0.768 10.5472-7.168 19.9168-18.176 21.6064-111.104 16.896-195.9936 108.2368-195.9936 218.4192 0 122.2144 104.3968 221.2864 233.216 221.2864h489.6256c128.8192 0 233.216-99.072 233.216-221.2864 0-110.1824-84.9408-201.5232-196.0448-218.4192z" fill="#8C7BFD" p-id="4738"></path><path d="M506.4192 723.6608c-66.4064 0-132.7616-25.2416-183.3472-75.8272-20.0192-20.0192-20.0192-52.4288 0-72.3968 20.0192-19.968 52.4288-19.968 72.3968 0 61.184 61.1328 160.6656 61.184 221.8496 0 20.0192-19.968 52.4288-19.968 72.3968 0 20.0192 20.0192 20.0192 52.4288 0 72.3968-50.4832 50.5344-116.8896 75.8272-183.296 75.8272z" fill="#FFE37B" p-id="4739"></path></svg>