<?xml version="1.0" standalone="no"?><!DOCTYPE svg PUBLIC "-//W3C//DTD SVG 1.1//EN" "http://www.w3.org/Graphics/SVG/1.1/DTD/svg11.dtd"><svg t="1625497131583" class="icon" viewBox="0 0 1024 1024" version="1.1" xmlns="http://www.w3.org/2000/svg" p-id="7008" xmlns:xlink="http://www.w3.org/1999/xlink" width="200" height="200"><defs><style type="text/css"></style></defs><path d="M782 947H242c-91 0-165-74-165-165V242c0-91 74-165 165-165h270c24.8 0 45 20.2 45 45s-20.2 45-45 45H242c-41.4 0-75 33.6-75 75v540c0 41.4 33.6 75 75 75h540c41.4 0 75-33.6 75-75V512c0-24.8 20.2-45 45-45s45 20.2 45 45v270c0 91-74 165-165 165z" fill="#2081F6" p-id="7009"></path><path d="M902 77H692c-24.9 0-45 20.1-45 45s20.1 45 45 45h101L551.6 408.4c-17.6 17.6-17.6 46.1 0 63.6 17.6 17.6 46.1 17.6 63.6 0L857 230.2V332c0 24.9 20.1 45 45 45s45-20.1 45-45V122c0-24.9-20.1-45-45-45z" fill="#4C4F54" p-id="7010"></path></svg>