<?xml version="1.0" standalone="no"?><!DOCTYPE svg PUBLIC "-//W3C//DTD SVG 1.1//EN" "http://www.w3.org/Graphics/SVG/1.1/DTD/svg11.dtd"><svg t="1625102687722" class="icon" viewBox="0 0 1024 1024" version="1.1" xmlns="http://www.w3.org/2000/svg" p-id="1793" xmlns:xlink="http://www.w3.org/1999/xlink" width="200" height="200"><defs><style type="text/css"></style></defs><path d="M610 134 603 134 603 288 799 288 799 281Z" p-id="1794"></path><path d="M582 134 225 134l0 756 574 0L799 309 582 309 582 134zM344 491c19.3 0 35 15.7 35 35 0 19.3-15.7 35-35 35s-35-15.7-35-35C309 506.7 324.7 491 344 491zM611.3 526 722 729 309 729l113.3-203 37.5 68.8L517 491l55.8 103.9L611.3 526z" p-id="1795"></path></svg>