<?xml version="1.0" standalone="no"?><!DOCTYPE svg PUBLIC "-//W3C//DTD SVG 1.1//EN" "http://www.w3.org/Graphics/SVG/1.1/DTD/svg11.dtd"><svg t="1625102888028" class="icon" viewBox="0 0 1024 1024" version="1.1" xmlns="http://www.w3.org/2000/svg" p-id="3948" xmlns:xlink="http://www.w3.org/1999/xlink" width="200" height="200"><defs><style type="text/css"></style></defs><path d="M921.6 202.24H102.4c-20.992 0-38.4-17.408-38.4-38.4s17.408-38.4 38.4-38.4h819.2c20.992 0 38.4 17.408 38.4 38.4s-17.408 38.4-38.4 38.4z m0 348.16H102.4C81.408 550.4 64 532.992 64 512s17.408-38.4 38.4-38.4h819.2c20.992 0 38.4 17.408 38.4 38.4s-17.408 38.4-38.4 38.4z m0 348.16H102.4c-20.992 0-38.4-17.408-38.4-38.4s17.408-38.4 38.4-38.4h819.2c20.992 0 38.4 17.408 38.4 38.4s-17.408 38.4-38.4 38.4z" p-id="3949"></path></svg>