<?xml version="1.0" standalone="no"?><!DOCTYPE svg PUBLIC "-//W3C//DTD SVG 1.1//EN" "http://www.w3.org/Graphics/SVG/1.1/DTD/svg11.dtd"><svg t="1625102777304" class="icon" viewBox="0 0 1024 1024" version="1.1" xmlns="http://www.w3.org/2000/svg" p-id="2887" xmlns:xlink="http://www.w3.org/1999/xlink" width="200" height="200"><defs><style type="text/css"></style></defs><path d="M358.4 330.151724h-126.234483v-35.310345H358.4c19.42069 0 35.310345-15.889655 35.310345-35.310345V133.296552h35.310345V259.531034c0 39.017931-31.602759 70.62069-70.62069 70.62069z" fill="#040000" p-id="2888"></path><path d="M219.642703 299.922538L398.787972 120.779034l24.967945 24.967945L244.610648 324.890483z" fill="#040000" p-id="2889"></path><path d="M708.855172 857.158621h-423.724138c-39.017931 0-70.62069-31.602759-70.620689-70.62069V305.257931L404.126897 115.641379h304.728275c39.017931 0 70.62069 31.602759 70.62069 70.62069v600.275862c0 39.017931-31.602759 70.62069-70.62069 70.62069z m-459.034482-537.423449v466.802759c0 19.42069 15.889655 35.310345 35.310344 35.310345h423.724138c19.42069 0 35.310345-15.889655 35.310345-35.310345v-600.275862c0-19.42069-15.889655-35.310345-35.310345-35.310345H418.604138l-168.783448 168.783448z" fill="#040000" p-id="2890"></path><path d="M672.662069 476.689655H319.558621c-9.710345 0-17.655172-7.944828-17.655173-17.655172s7.944828-17.655172 17.655173-17.655173h353.103448c9.710345 0 17.655172 7.944828 17.655172 17.655173s-7.944828 17.655172-17.655172 17.655172z" fill="#040000" p-id="2891"></path><path d="M672.662069 335.448276H496.110345c-9.710345 0-17.655172-7.944828-17.655173-17.655173s7.944828-17.655172 17.655173-17.655172h176.551724c9.710345 0 17.655172 7.944828 17.655172 17.655172s-7.944828 17.655172-17.655172 17.655173z" fill="#3A86B9" p-id="2892"></path><path d="M672.662069 617.931034H319.558621c-9.710345 0-17.655172-7.944828-17.655173-17.655172s7.944828-17.655172 17.655173-17.655172h353.103448c9.710345 0 17.655172 7.944828 17.655172 17.655172s-7.944828 17.655172-17.655172 17.655172z" fill="#040000" p-id="2893"></path></svg>