<?xml version="1.0" standalone="no"?><!DOCTYPE svg PUBLIC "-//W3C//DTD SVG 1.1//EN" "http://www.w3.org/Graphics/SVG/1.1/DTD/svg11.dtd"><svg t="1625303637329" class="icon" viewBox="0 0 1024 1024" version="1.1" xmlns="http://www.w3.org/2000/svg" p-id="4057" xmlns:xlink="http://www.w3.org/1999/xlink" width="200" height="200"><defs><style type="text/css"></style></defs><path d="M600.8 129.1c34.4-1.9 63.6 24.5 65.5 58.8l8.8 165.7c1.9 34.4-24.5 63.6-58.8 65.5-34.4 1.9-63.6-24.5-65.5-58.8L542 194.6c-1.7-34.4 24.6-63.8 58.8-65.5z" fill="#91CE55" p-id="4058"></path><path d="M616.9 288.3l110.9-123.5c23-25.5 62.3-27.7 87.8-4.7s27.7 62.3 4.7 87.8l-111 123.5c-23 25.5-62.3 27.7-87.8 4.7s-27.6-62.3-4.6-87.8z" fill="#A4CE4E" p-id="4059"></path><path d="M626.3 304.2l165.7-8.8c34.4-1.9 63.6 24.5 65.5 58.8 1.9 34.4-24.5 63.6-58.8 65.5L633 428.5c-34.4 1.9-63.6-24.5-65.5-58.8-1.8-34.4 24.5-63.6 58.8-65.5z" fill="#A1D72B" p-id="4060"></path><path d="M697.1 279.9c79.7 71.6 89.6 193 22.6 276.7-2.3 3.1-4.8 6-7.4 8.8-5.5 6.3-11.5 12.2-17.9 17.5-104.8 107.2-224.2 198.9-354.6 272.5l-5.3 2.9c-46.1 24.5-102.7 17.6-141.6-17.2s-51.9-90.4-32.3-138.9c-0.1-1.9 1.6-3.9 2.4-5.6 59.4-137.6 137.9-266.2 233-382 4.7-6.8 9.9-13.4 15.5-19.5 2.7-2.9 5.3-5.6 8.2-8.2 75.9-75.5 197.7-78.5 277.4-7z" fill="#FF4601" p-id="4061"></path><path d="M598.3 233c90.6 81 102.3 218.7 26.5 313.6-2.8 3.6-5.6 6.8-8.3 9.9-6.5 7.2-13.6 13.9-21.3 19.9a1811.3 1811.3 0 0 1-365 287.3c-30.7-12.2-55.3-36.1-68.3-66.4-13.1-30.3-13.5-64.7-1.2-95.3-0.1-1.9 1.6-3.9 2.4-5.6 10.3-23.4 20.9-46.8 32.3-69.9 9.9-20.6 20.5-41 31.5-61.4 11.1-20.3 23.5-41.7 37.2-64.3 11.8-19.2 23.9-38.2 36.6-56.9 13.9-20.9 28.1-41.2 42.2-61 13.1-18 26.9-35.8 40.9-53.1 3.9-5.2 8-10.3 12.2-15.2 4.7-6.8 9.9-13.4 15.5-19.5 2.7-2.9 5.3-5.6 8.2-8.2 46.1-46.2 112-67.2 176.4-56.1l2.2 2.2z" fill="#F86F1F" p-id="4062"></path><path d="M226.3 564.4l64.4 57.9c11.2 7.1 17.1 20.2 15.1 33.3s-11.6 23.8-24.5 27.1c-12.8 3.5-26.5-1.1-34.8-11.4l-52-45.7c10.3-20.4 20.7-40.8 31.8-61.2zM299.8 447.5l107.3 96.4c10.3 12.8 9.8 31-1.2 43.3-11 12.2-29.1 14.7-42.9 5.9l-99.8-88.5c11.6-19.4 23.9-38.4 36.6-57.1zM382.3 333.2l83 74.5c10.3 12.8 9.8 31-1.2 43.3-11 12.2-29.1 14.7-42.9 5.9L342 385.7c12.6-17.3 26.1-35.3 40.3-52.5z" fill="#F4C1A8" p-id="4063"></path><path d="M573.3 240.2c-21.9-2-44 2-63.8 11.8-6.7 3.3-2.1 14 4.7 10.7 18-8.8 37.8-12.7 57.9-10.8 7.5 0.6 8.7-11.1 1.2-11.7zM487.3 266.1c-4.7-5.9-13.9 1.5-9.1 7.4 4.7 5.8 13.8-1.5 9.1-7.4z" fill="#FFFFFF" p-id="4064"></path></svg>