<?xml version="1.0" standalone="no"?><!DOCTYPE svg PUBLIC "-//W3C//DTD SVG 1.1//EN" "http://www.w3.org/Graphics/SVG/1.1/DTD/svg11.dtd"><svg t="1625102872302" class="icon" viewBox="0 0 1024 1024" version="1.1" xmlns="http://www.w3.org/2000/svg" p-id="3424" xmlns:xlink="http://www.w3.org/1999/xlink" width="200" height="200"><defs><style type="text/css"></style></defs><path d="M688.347429 950.857143H122.916571C55.076571 950.784 0.073143 895.067429 0 826.331429V197.668571C0.073143 128.950857 55.058286 73.252571 122.916571 73.142857h565.430858c66.523429-0.365714 121.051429 53.394286 122.496 120.758857v1.609143c0.036571 0.731429 0.036571 1.499429 0 2.249143v146.962286l130.432-68.461715a54.290286 54.290286 0 0 1 55.259428-0.219428A55.771429 55.771429 0 0 1 1024 324.608v377.6c-0.054857 30.866286-24.740571 55.881143-55.204571 55.917714a53.632 53.632 0 0 1-27.428572-7.259428l-130.450286-68.461715v143.908572a27.428571 27.428571 0 0 1 0 3.712v2.834286c-3.254857 66.157714-57.179429 118.070857-122.569142 117.997714zM219.337143 219.428571a109.714286 109.714286 0 1 0 0.182857 219.428572 109.714286 109.714286 0 0 0-0.182857-219.428572z" p-id="3425"></path></svg>