<?xml version="1.0" standalone="no"?><!DOCTYPE svg PUBLIC "-//W3C//DTD SVG 1.1//EN" "http://www.w3.org/Graphics/SVG/1.1/DTD/svg11.dtd"><svg t="1625102907690" class="icon" viewBox="0 0 1024 1024" version="1.1" xmlns="http://www.w3.org/2000/svg" p-id="4606" xmlns:xlink="http://www.w3.org/1999/xlink" width="200" height="200"><defs><style type="text/css"></style></defs><path d="M828 225H627.29l92.44-92.44a15.21 15.21 0 0 0 0-21.45l-5.36-5.36a15.21 15.21 0 0 0-21.45 0L573.67 225H450.33L331.08 105.73a15.21 15.21 0 0 0-21.45 0l-5.36 5.36a15.21 15.21 0 0 0 0 21.45L396.71 225H196c-69.17 0-125.77 56.59-125.77 125.77v423.41c0 69.17 56.59 125.77 125.77 125.77h6.32v7.58a15.21 15.21 0 0 0 15.17 15.17h30.34A15.21 15.21 0 0 0 263 907.53v-7.58h498v7.58a15.21 15.21 0 0 0 15.17 15.17h30.34a15.21 15.21 0 0 0 15.17-15.17v-7.58H828c69.17 0 125.77-56.59 125.77-125.77V350.75C953.76 281.57 897.17 225 828 225zM675.58 601.07L392.29 764.62c-29.25 16.89-65.81-4.22-65.81-38V399.51c0-33.78 36.56-54.89 65.81-38l283.29 163.56c29.25 16.93 29.25 59.11 0 76z" p-id="4607"></path></svg>